<?xml version="1.0" encoding="UTF-8"?>
<svg xmlns="http://www.w3.org/2000/svg" version="1.1" viewBox="0 0 192 192">
  <defs>
    <style>
      .cls-1 {
        fill: #b99f82;
      }
    </style>
  </defs>
  <!-- Generator: Adobe Illustrator 28.6.0, SVG Export Plug-In . SVG Version: 1.2.0 Build 709)  -->
  <g>
    <g id="Layer_1">
      <g>
        <path class="cls-1" d="M86.4,129c-8.6,8.7-20.6,13.7-32.9,13.7h-.1c-17.7,0-32.1-20.9-32.1-46.7s14.4-46.6,32.1-46.6h.7c11.8.1,23,4.7,31.5,12.9v10.8h4.2v-27.9h-4.2v2.8c0,2.5-2.1,4.6-4.6,4.6-.8,0-1.5-.2-2.2-.5h-.1c-7.7-4.5-16.4-6.8-25.3-6.8h0c-28,0-50.8,22.8-50.8,50.8,0,28,22.8,50.8,50.8,50.8h0c6.8,0,13.4-1.3,19.7-4,6.1-2.6,11.5-6.2,16.2-10.9l1-1-3-3-1,1Z"/>
        <path class="cls-1" d="M151.5,45.1h-57.8v4.2h5.2c2.5,0,4.6,2.1,4.6,4.6v84.1c0,2.5-2.1,4.6-4.6,4.6h-5.2v4.2h38.4v-4.2h-5.2c-2.5,0-4.6-2.1-4.6-4.6v-17h29.2c20.9,0,37.9-17,37.9-37.9h0c0-20.9-17-37.9-37.9-37.9ZM151.5,116.8h-29.2V49.4h29.2c10.6,0,19.2,15.1,19.2,33.7s-8.6,33.7-19.2,33.7Z"/>
      </g>
    </g>
  </g>
</svg>